<svg xmlns="http://www.w3.org/2000/svg" width="96.96" height="133.43" viewBox="0 0 96.96 133.43"><title>event</title><g style="isolation:isolate"><path d="M254.55,180.83c-5.64.26-19,.39-24.61.65-5.38.25-11.3.8-16.6,1.52a8,8,0,0,0-3.79,1c-1.81,1.21-2.33,3.6-2.62,5.76-.74,5.6-.86,17.1-1,22.74-.64,20.49-.23,62.17.69,77.43.25,4.14-.2,8.66,2.93,11.37,2.69,2.34,6.53,2.66,10.09,2.88,22.49,1.35,46.22,1.6,68.65-.6,4.43-.43,9.41-1.34,11.86-5.06,1.41-2.14,1.68-4.82,1.85-7.38.7-10.69.5-24.41.56-35.12.12-24.6-.23-43.74-.74-65.32a9.28,9.28,0,0,0-.68-4c-1.32-2.61-4.63-3.36-7.52-3.77C278.43,180.81,269.8,180.14,254.55,180.83Z" transform="translate(-205.58 -171.8)" fill="#224584"/><g opacity="0.57" style="mix-blend-mode:multiply"><path d="M298.77,258.6c.25-19,.17-25-.39-40.77-.19-5.26.67-20.6-1.63-23-4.75-4.93-12.36-5-18.52-6.11-4.13-.71-3-3.91-10.16-4.4-1.26-.09-1.68-2.65-2.45-3.75-.05-.06-4.18.27-4.22.2-3.51.21-2-.34-5.48-.26a7.11,7.11,0,0,1-2.06,2.94c-4.42,3.74-11.47,5.19-17,5.89-3.89.5-7.8.56-11.7.89-3.24.27-6.84.8-9.1,3.38-2.64,3-2.93,12.6-3.09,16.39a125.54,125.54,0,0,0,.35,12.57c.89,15.63.22,31.38.59,47,.21,9.26-1.54,24.39,9.67,27.86,7.23,2.23,20.06.93,30.88,1.28a219,219,0,0,0,34.37-1.39c4.72-.57,6.72-2.62,7.46-4.31C299.79,285,298.64,269.22,298.77,258.6Z" transform="translate(-205.58 -171.8)" fill="#224584"/></g><path d="M253.87,188.23c-4.8.22-16.12.33-20.93.55-4.57.22-9.61.68-14.12,1.3a6.71,6.71,0,0,0-3.22.87c-1.53,1-2,3.07-2.22,4.91-.64,4.78-.6,14.32-.89,19.13-1.24,20.63.7,58.05,1.51,68.88.26,3.52-1.1,5.5,1.56,7.81,2.29,2,5.55,2.27,8.58,2.45,19.13,1.15,39.31,2.33,58.38.46,3.77-.37,8-1.15,10.09-4.32,1.2-1.82,1.42-4.11,1.57-6.29.6-9.12.39-18.27.17-27.4-.42-18.4,0-38.66-.39-57.06a27.38,27.38,0,0,0-1.47-6.27c-1.11-2.22-4.78-3.87-7.25-4.05C272.53,188.24,266.84,187.64,253.87,188.23Z" transform="translate(-205.58 -171.8)" fill="#f3faff"/><path d="M229.47,224.38c0,.08-.36.15-1,.22a8.69,8.69,0,0,1-1.23.06,3.71,3.71,0,0,1-1.7-.42,2.07,2.07,0,0,1-.82-.79,2.65,2.65,0,0,1-.25-.54,5.26,5.26,0,0,1-.15-.53,13.67,13.67,0,0,1-.29-2.27c-.11-1.56,0-3.28,0-5.09a6.44,6.44,0,0,1,.18-1.44,2.62,2.62,0,0,1,.92-1.37,5.1,5.1,0,0,1,2.59-.83,33.32,33.32,0,0,1,4.17-.07c2.37.13,3.8.46,3.78.62s-1.47.16-3.78.27c-1.15.05-2.55.14-4,.32a4.19,4.19,0,0,0-2,.66c-.48.35-.57,1-.6,1.91,0,1.76-.14,3.45-.09,5a13.49,13.49,0,0,0,.16,2.1,1.69,1.69,0,0,0,.67,1.32,3.29,3.29,0,0,0,1.3.47c.44.08.83.12,1.16.16C229.11,224.19,229.48,224.29,229.47,224.38Z" transform="translate(-205.58 -171.8)" fill="#628bb8"/><path d="M232.94,211.94c0-.06.29-.36,1-.42a3.08,3.08,0,0,1,2.76,1.43,4.39,4.39,0,0,1,.55,2.13c.05.71.11,1.47.17,2.27a21.87,21.87,0,0,1,0,2.58,11.06,11.06,0,0,1-.32,2.85,2.61,2.61,0,0,1-.38.79,1.82,1.82,0,0,1-.36.38,2.13,2.13,0,0,1-.39.25,5.83,5.83,0,0,1-1.44.43,17.28,17.28,0,0,1-2.59.25c-1.64,0-3.12-.07-4.34-.16a5.73,5.73,0,0,1-1.7-.43,2.46,2.46,0,0,1-1.07-.87c-.44-.65-.3-1.13-.23-1.11s.15.38.6.8a3.48,3.48,0,0,0,2.46.73c1.21,0,2.64-.06,4.22-.11a20.76,20.76,0,0,0,2.42-.3,4.82,4.82,0,0,0,1.11-.34.93.93,0,0,0,.18-.12.44.44,0,0,0,.11-.12,1.34,1.34,0,0,0,.21-.45,11.69,11.69,0,0,0,.29-2.52c.05-.87.05-1.67,0-2.47s-.06-1.57-.06-2.3a3.63,3.63,0,0,0-.28-1.72,2.75,2.75,0,0,0-2-1.39C233.34,211.91,233,212,232.94,211.94Z" transform="translate(-205.58 -171.8)" fill="#628bb8"/><path d="M229.88,243.62c0,.09-.4.15-1.12.22a8.15,8.15,0,0,1-1.35,0,3.07,3.07,0,0,1-1.83-.65,2.45,2.45,0,0,1-.68-1,7,7,0,0,1-.28-1.14,21,21,0,0,1-.22-2.45c-.05-.85,0-1.76,0-2.69l0-1.42a6.36,6.36,0,0,1,.15-1.56,2.58,2.58,0,0,1,1-1.54,4.06,4.06,0,0,1,1.51-.63,16.43,16.43,0,0,1,2.74-.28c.86,0,1.69,0,2.45,0,.39,0,.76,0,1.11.08l.52.05a2.51,2.51,0,0,1,.3,0l.27.08c.32.1.61.23.86.31a2.54,2.54,0,0,1,.83.44,2.49,2.49,0,0,1,.82,1.21c.22.78,0,1.2-.07,1.18s-.07-.42-.38-1a2.23,2.23,0,0,0-.78-.82,1.68,1.68,0,0,0-.64-.24l-.88-.23-.2,0h-1.78c-.73,0-1.52.05-2.35.12a19.16,19.16,0,0,0-2.54.32,3,3,0,0,0-1.06.45,1.33,1.33,0,0,0-.53.83,5.94,5.94,0,0,0-.12,1.32c0,.47,0,.94,0,1.39,0,.91-.08,1.79-.07,2.63s0,1.63.1,2.34a6.93,6.93,0,0,0,.17,1,1.52,1.52,0,0,0,.36.66,2.59,2.59,0,0,0,1.33.61c.47.1.9.13,1.26.18C229.48,243.43,229.89,243.53,229.88,243.62Z" transform="translate(-205.58 -171.8)" fill="#628bb8"/><path d="M233.34,231.18c0-.06.29-.36,1-.42a3.11,3.11,0,0,1,2.76,1.43,4.41,4.41,0,0,1,.54,2.13l.17,2.27a20,20,0,0,1,0,2.58,11.47,11.47,0,0,1-.31,2.85,3.11,3.11,0,0,1-.39.8,2,2,0,0,1-.35.37,2.59,2.59,0,0,1-.4.25,5.48,5.48,0,0,1-1.43.43,17.53,17.53,0,0,1-2.6.25c-1.64,0-3.11-.06-4.34-.16a5.81,5.81,0,0,1-1.7-.42,2.68,2.68,0,0,1-1.07-.87c-.43-.66-.29-1.13-.22-1.12s.15.38.6.8a3.43,3.43,0,0,0,2.46.73c1.2,0,2.63-.06,4.21-.11a18.59,18.59,0,0,0,2.42-.3,4.91,4.91,0,0,0,1.12-.34l.17-.11.12-.13a1.89,1.89,0,0,0,.21-.45,11.71,11.71,0,0,0,.28-2.52c.05-.87.05-1.66,0-2.47s-.05-1.57-.05-2.29a3.8,3.8,0,0,0-.28-1.73,2.7,2.7,0,0,0-2-1.38C233.75,231.16,233.38,231.27,233.34,231.18Z" transform="translate(-205.58 -171.8)" fill="#628bb8"/><path d="M230.41,263.62c0,.08-.4.14-1.12.22a8.15,8.15,0,0,1-1.35,0,3.19,3.19,0,0,1-1.83-.65,2.38,2.38,0,0,1-.69-1,7.27,7.27,0,0,1-.27-1.14,19.06,19.06,0,0,1-.22-2.46c-.05-.85,0-1.75,0-2.68,0-.47,0-.94,0-1.43a7.48,7.48,0,0,1,.15-1.55,2.65,2.65,0,0,1,1-1.54,4.31,4.31,0,0,1,1.52-.64,17.48,17.48,0,0,1,2.74-.27c.86,0,1.68,0,2.45,0l1.11.08.51,0,.3.05.28.07.86.32a2.45,2.45,0,0,1,.83.44,2.51,2.51,0,0,1,.81,1.2c.23.78,0,1.21-.07,1.19s-.06-.43-.38-1a2.12,2.12,0,0,0-.77-.82,1.74,1.74,0,0,0-.64-.24l-.89-.24-.19,0h-.2l-.51,0h-1.07c-.74,0-1.52.05-2.36.12a17.67,17.67,0,0,0-2.53.32,3,3,0,0,0-1.06.44,1.36,1.36,0,0,0-.53.83,6.66,6.66,0,0,0-.13,1.33c0,.47,0,.93,0,1.39,0,.91-.08,1.78-.06,2.63s0,1.63.09,2.34a7.44,7.44,0,0,0,.17,1,1.75,1.75,0,0,0,.36.66,2.66,2.66,0,0,0,1.34.61c.47.09.9.13,1.25.17C230,263.43,230.41,263.53,230.41,263.62Z" transform="translate(-205.58 -171.8)" fill="#628bb8"/><path d="M233.87,251.18c0-.06.29-.36,1-.42a3.08,3.08,0,0,1,2.76,1.43,4.36,4.36,0,0,1,.55,2.13l.17,2.27a21.87,21.87,0,0,1,.05,2.58,11.06,11.06,0,0,1-.32,2.85,2.61,2.61,0,0,1-.38.79,1.82,1.82,0,0,1-.36.38,2.13,2.13,0,0,1-.39.25,5.83,5.83,0,0,1-1.44.43,17.28,17.28,0,0,1-2.59.25c-1.64,0-3.12-.07-4.34-.17a5.44,5.44,0,0,1-1.7-.42,2.46,2.46,0,0,1-1.07-.87c-.43-.65-.3-1.13-.23-1.11s.16.38.6.8a3.49,3.49,0,0,0,2.47.72c1.2,0,2.63-.05,4.21-.1a20.76,20.76,0,0,0,2.42-.3,4.82,4.82,0,0,0,1.11-.34.93.93,0,0,0,.18-.12.44.44,0,0,0,.11-.12,1.34,1.34,0,0,0,.21-.45,11.69,11.69,0,0,0,.29-2.52c.05-.88.05-1.67,0-2.47s-.06-1.58-.06-2.3a3.77,3.77,0,0,0-.27-1.72,2.78,2.78,0,0,0-2-1.39C234.27,251.15,233.9,251.27,233.87,251.18Z" transform="translate(-205.58 -171.8)" fill="#628bb8"/><path d="M231,284.46c0,.08-.4.15-1.12.22a8.15,8.15,0,0,1-1.35,0,3.19,3.19,0,0,1-1.83-.65,2.38,2.38,0,0,1-.69-1,7.27,7.27,0,0,1-.27-1.14,19.06,19.06,0,0,1-.22-2.46c0-.85,0-1.75,0-2.68,0-.47,0-.94,0-1.43a7.48,7.48,0,0,1,.15-1.55,2.65,2.65,0,0,1,1-1.54,4.1,4.1,0,0,1,1.52-.63,16.43,16.43,0,0,1,2.74-.28c.86,0,1.68,0,2.45,0,.38,0,.75,0,1.11.07l.51.06a2.27,2.27,0,0,1,.3,0l.28.07.86.32a2.64,2.64,0,0,1,.83.44,2.56,2.56,0,0,1,.81,1.2c.23.78,0,1.21-.07,1.19s-.06-.43-.38-1a2.19,2.19,0,0,0-.77-.82,1.74,1.74,0,0,0-.64-.24l-.89-.24-.19,0H233.4c-.74,0-1.53,0-2.36.12a17.67,17.67,0,0,0-2.53.32,3,3,0,0,0-1.06.44,1.35,1.35,0,0,0-.53.84,6.56,6.56,0,0,0-.13,1.32c0,.47,0,.93,0,1.39,0,.91-.08,1.78-.06,2.63s0,1.63.09,2.34a7.44,7.44,0,0,0,.17,1,1.75,1.75,0,0,0,.36.66,2.66,2.66,0,0,0,1.33.61c.48.09.91.13,1.26.17C230.62,284.27,231,284.37,231,284.46Z" transform="translate(-205.58 -171.8)" fill="#628bb8"/><path d="M234.48,272c0-.06.29-.36,1-.42a3.08,3.08,0,0,1,2.76,1.43,4.39,4.39,0,0,1,.55,2.13c0,.71.11,1.47.17,2.27a21.87,21.87,0,0,1,.05,2.58,11.06,11.06,0,0,1-.32,2.85,2.61,2.61,0,0,1-.38.79,1.82,1.82,0,0,1-.36.38,2.13,2.13,0,0,1-.39.25,5.83,5.83,0,0,1-1.44.43,17.28,17.28,0,0,1-2.59.25c-1.64,0-3.12-.06-4.34-.16a5.73,5.73,0,0,1-1.7-.43,2.46,2.46,0,0,1-1.07-.87c-.44-.65-.3-1.13-.23-1.11s.16.38.6.8a3.49,3.49,0,0,0,2.47.73c1.2,0,2.63-.06,4.21-.11a20.76,20.76,0,0,0,2.42-.3,4.82,4.82,0,0,0,1.11-.34.93.93,0,0,0,.18-.12.44.44,0,0,0,.11-.12,1.34,1.34,0,0,0,.21-.45,11.69,11.69,0,0,0,.29-2.52c0-.87,0-1.67,0-2.47s-.06-1.57-.06-2.29a3.81,3.81,0,0,0-.27-1.73,2.73,2.73,0,0,0-2-1.38C234.88,272,234.51,272.11,234.48,272Z" transform="translate(-205.58 -171.8)" fill="#628bb8"/><path d="M235.6,193.07s-3.5,3.4,3.41,4.18,31.71,0,31.71,0,5,.48,5.19-1.92l.19-2.41Z" transform="translate(-205.58 -171.8)" fill="#dedede" opacity="0.6" style="mix-blend-mode:multiply"/><path d="M278,213.91c0,.36-7.56.75-16.89.87s-16.9-.08-16.9-.44,7.55-.76,16.88-.88S278,213.54,278,213.91Z" transform="translate(-205.58 -171.8)" fill="#97a8b1"/><path d="M277.07,220.34c0,.36-7.29.61-16.26.56-2.24,0-4.37-.08-6.3,0l-5.15.07c-3,0-4.81-.22-4.78-.44a35,35,0,0,1,4.74-.49c1.46-.12,3.2-.26,5.16-.36s4.1-.07,6.34-.06C269.79,219.63,277.08,220,277.07,220.34Z" transform="translate(-205.58 -171.8)" fill="#97a8b1"/><path d="M277,237.31c0,.36-7.15.91-16,1.23s-16,.28-16-.08,7.14-.92,16-1.23S277,237,277,237.31Z" transform="translate(-205.58 -171.8)" fill="#97a8b1"/><path d="M276.79,243.71c0,.35-6.89,1-15.42,1.14s-15.46-.44-15.44-.79,6.92-.43,15.42-.53S276.77,243.34,276.79,243.71Z" transform="translate(-205.58 -171.8)" fill="#97a8b1"/><path d="M278.22,256c0,.18-1.78.52-4.71.74s-7,.35-11.43.37c-8.92,0-16.14-.24-16.15-.59s7.23-.7,16.14-.72h11.41C276.4,255.87,278.2,255.86,278.22,256Z" transform="translate(-205.58 -171.8)" fill="#97a8b1"/><path d="M277.64,262.33c0,.35-6.94,1.12-15.55,1.22s-15.59-.52-15.57-.87,7-.35,15.55-.45S277.61,262,277.64,262.33Z" transform="translate(-205.58 -171.8)" fill="#97a8b1"/><path d="M278.2,274.39c0,.17-1.76.51-4.65.79s-6.9.5-11.31.62l-11.3.24c-2.89,0-4.69,0-4.7-.14s1.75-.51,4.65-.79,6.89-.5,11.31-.62l11.3-.24C276.39,274.21,278.19,274.2,278.2,274.39Z" transform="translate(-205.58 -171.8)" fill="#97a8b1"/><path d="M278.37,281.78c0,.18-1.76.45-4.63.61s-6.83.24-11.2.21c-8.74-.06-15.82-.39-15.82-.76s7.1-.62,15.83-.56c4.37,0,8.32.1,11.18.18S278.36,281.6,278.37,281.78Z" transform="translate(-205.58 -171.8)" fill="#97a8b1"/><path d="M265.62,295.55a7.4,7.4,0,0,1-1.74.13l-5,.09c-4.33.05-10.6.17-18.35.15-3.88,0-8.13-.08-12.69-.28-2.29-.11-4.62-.23-7.08-.44a10.39,10.39,0,0,1-3.79-1,5.17,5.17,0,0,1-1.66-1.38,7.5,7.5,0,0,1-1-1.86c-.11-.3-.22-.6-.34-.87a3.54,3.54,0,0,0-.19-.39c0-.07-.16-.25-.16-.39l0-.35q-.07-1-.15-1.95c-.09-1.3-.19-2.63-.28-4q-.27-4-.54-8.19c-.33-5.56-.65-11.32-.82-17.24-.09-2.94-.1-5.91,0-8.76s0-5.7,0-8.48c0-5.57-.05-10.94,0-16.06a243.09,243.09,0,0,1,1.45-27.2c.23-1.9.49-3.93,1.74-5.46a5.52,5.52,0,0,1,2.24-1.58,14.17,14.17,0,0,1,2.36-.69,46.45,46.45,0,0,1,7.9-.86c2.17-.07,3.85,0,5,0a7.83,7.83,0,0,1,1.74.15,7.22,7.22,0,0,1-1.74.15c-1.13.06-2.81.12-5,.28a49,49,0,0,0-7.74,1.09c-1.45.37-3.07.81-4,2.05s-1.23,3.07-1.41,5a261,261,0,0,0-1.12,27.08c0,10.23.09,21.47.15,33.26.16,5.89.47,11.64.78,17.19q.26,4.17.5,8.18c.09,1.33.18,2.66.26,4,.05.66.09,1.3.14,1.95,0,.25,0,.06,0,.19a5.11,5.11,0,0,1,.22.48c.14.32.25.63.37.92a6.14,6.14,0,0,0,.75,1.54,4,4,0,0,0,1.21,1,9.06,9.06,0,0,0,3.28.89c2.37.24,4.74.38,7,.52,4.53.25,8.76.38,12.63.47,7.74.15,14,.2,18.34.33,2.17.06,3.85.12,5,.19A8,8,0,0,1,265.62,295.55Z" transform="translate(-205.58 -171.8)" fill="#6482b2"/><path d="M270.72,188.27a5.9,5.9,0,0,1,1.64-.18c1.09-.05,2.68-.06,4.74,0s4.56.31,7.45.57a11,11,0,0,1,2.31.35,12,12,0,0,1,2.32.93,14.26,14.26,0,0,1,2.21,1.42c.36.28.7.58,1,.9a3.93,3.93,0,0,1,.49.56,2.66,2.66,0,0,1,.43.64,9.19,9.19,0,0,1,.91,2.83,22.46,22.46,0,0,1,.35,3c.13,2,.09,4.13,0,6.28-.07,4.26.06,8.89.1,13.72.12,9.67.31,20.31.29,31.48,0,5.6-.17,11-.08,16.29a113.58,113.58,0,0,1-.49,15.24,30.91,30.91,0,0,1-1.3,7.11,6.2,6.2,0,0,1-.91,1.67,13.83,13.83,0,0,1-1.25,1.28,9.59,9.59,0,0,1-3,1.83,10,10,0,0,1-1.64.45l-1.55.3c-1,.19-2,.34-3,.47-2,.27-3.93.42-5.77.51-3.67.2-7,.05-9.9,0l-7.46-.09c-2.05,0-3.64-.13-4.72-.23a5.83,5.83,0,0,1-1.63-.27,7.21,7.21,0,0,1,1.65,0c1.07,0,2.66,0,4.7,0s4.54-.14,7.46-.17,6.21.07,9.84-.19c1.81-.13,3.71-.31,5.67-.6,1-.15,2-.31,3-.51a18.16,18.16,0,0,0,3-.73,8.23,8.23,0,0,0,2.55-1.62,10.57,10.57,0,0,0,1.09-1.14,4.73,4.73,0,0,0,.7-1.32,30.45,30.45,0,0,0,1.15-6.78,114.36,114.36,0,0,0,.4-15.07c-.12-5.29.06-10.74,0-16.31,0-11.15-.12-21.79-.16-31.47,0-4.85-.08-9.42,0-13.77.07-2.15.14-4.21,0-6.17a21.5,21.5,0,0,0-.28-2.85,8.43,8.43,0,0,0-.75-2.52,6.11,6.11,0,0,0-1.65-1.81,13.91,13.91,0,0,0-2-1.37,11.72,11.72,0,0,0-2.12-.9,10.23,10.23,0,0,0-2.13-.38c-2.9-.34-5.38-.64-7.41-.83s-3.62-.28-4.7-.32A7.32,7.32,0,0,1,270.72,188.27Z" transform="translate(-205.58 -171.8)" fill="#6482b2"/><path d="M235.62,190.76c.42-1.79-.63-4,.58-5.36a3.57,3.57,0,0,1,1.42-.89c2.77-1.09,5.82-1.1,8.78-1.1h12.66a37.61,37.61,0,0,1,7.72.53,4.64,4.64,0,0,1,3,1.66c.95,1.48.2,3.52.9,5.13" transform="translate(-205.58 -171.8)" fill="#dc8a29"/><path d="M236.94,190.51c-2.81,0-3.76.12-4.31.39a1.92,1.92,0,0,0-.66,2.55c.57,1.05,2,1.22,3.15,1.33,5.32.48,15,.47,26.15.17,2.94-.08,8.25-.34,11.08-1.12.82-.22,1.74-.6,2-1.41a1.78,1.78,0,0,0-.95-1.93c-.67-.39-2.75-.23-10.2-.36a149.57,149.57,0,0,0-19,.63Z" transform="translate(-205.58 -171.8)" fill="#ba5814"/><path d="M241.22,183.83c0-1.06,0-3.3,0-4.36,0-2.33-.14-4.16,1.52-5.79s4.29-1.76,6.66-1.84c2.63-.09,4.38,0,6.42.07s4.61.82,5.52,2.72a10,10,0,0,1,.51,3.18c0,2.47,0,3.44-.07,5.9" transform="translate(-205.58 -171.8)" fill="#ecbc47"/><path d="M270.23,190.13c0,.42-7.71,1.34-17.29,1.48s-17.33-.44-17.32-.85,7.76-.53,17.3-.68S270.19,189.71,270.23,190.13Z" transform="translate(-205.58 -171.8)" fill="#d46a3d"/><path d="M263,183.41c0,.42-4.86.86-10.88,1s-10.9-.13-10.9-.55,4.88-.86,10.88-1S263,183,263,183.41Z" transform="translate(-205.58 -171.8)" fill="#d46a3d"/><path d="M236.69,209.77c.57.49-1.58,3.86-3.86,8.12-.45.84-.88,1.66-1.28,2.42a7.75,7.75,0,0,1-.59.87,3,3,0,0,1-.86.71,1.88,1.88,0,0,1-1.85,0,2.3,2.3,0,0,1-.9-1.05A7.56,7.56,0,0,1,227,220c-.16-.44-.28-.84-.37-1.17-.16-.67-.16-1.1,0-1.21s.56.12,1,.61a8.92,8.92,0,0,1,.81.92c.39.51.43.49.54.5a.18.18,0,0,0,.16-.13.25.25,0,0,0,0-.08v0l.09-.19a26.45,26.45,0,0,1,1.21-2.57C233,212.09,236.17,209.3,236.69,209.77Z" transform="translate(-205.58 -171.8)" fill="#c5733a"/></g></svg>