<?xml version="1.0" encoding="utf-8"?>
<!-- Generator: Adobe Illustrator 23.0.2, SVG Export Plug-In . SVG Version: 6.00 Build 0)  -->
<svg version="1.1" id="OBJECTS" xmlns="http://www.w3.org/2000/svg" xmlns:xlink="http://www.w3.org/1999/xlink" x="0px" y="0px"
	 viewBox="0 0 750 500" style="enable-background:new 0 0 750 500;" xml:space="preserve">
<style type="text/css">
	.st0{display:none;fill:url(#SVGID_1_);}
	.st1{display:none;opacity:0.3;}
	.st2{display:none;fill:#FFFFFF;}
	.st3{display:none;}
	.st4{display:inline;fill:#00BAC1;}
	.st5{font-family:'OpenSans-Light';}
	.st6{font-size:24.421px;}
	.st7{display:inline;fill:#274251;}
	.st8{font-family:'OpenSans-Bold';}
	.st9{font-size:54.2688px;}
	.st10{display:inline;}
	.st11{fill:url(#SVGID_2_);}
	.st12{fill:#767F82;}
	.st13{font-family:'OpenSans';}
	.st14{font-size:5.8411px;}
	.st15{fill:url(#SVGID_3_);}
	.st16{fill:url(#SVGID_4_);}
	.st17{fill:url(#SVGID_5_);}
	.st18{fill:url(#SVGID_6_);}
	.st19{fill:url(#SVGID_7_);}
	.st20{fill:#274251;}
	.st21{font-size:12.2105px;}
	.st22{display:inline;fill:#A2A4AA;}
	.st23{clip-path:url(#SVGID_9_);}
	.st24{clip-path:url(#SVGID_11_);}
	.st25{fill:url(#SVGID_12_);}
	.st26{fill:url(#SVGID_13_);}
	.st27{fill:url(#SVGID_14_);}
	.st28{fill:url(#SVGID_15_);}
	.st29{fill:#54A7C6;}
	.st30{opacity:0.1;fill:url(#SVGID_16_);}
	.st31{fill:#4591CB;}
	.st32{opacity:0.2;fill:url(#SVGID_17_);}
	.st33{fill:#FFFFFF;}
	.st34{fill:none;}
	.st35{font-family:'Quicksand-Regular';}
	.st36{font-size:10.4793px;}
	.st37{fill:url(#SVGID_18_);}
	.st38{font-family:'Gilroy-ExtraBold';}
	.st39{font-size:16.7018px;}
	.st40{letter-spacing:1;}
	.st41{font-family:'Montserrat-Regular';}
	.st42{font-size:13.5672px;}
</style>
<linearGradient id="SVGID_1_" gradientUnits="userSpaceOnUse" x1="62.5" y1="-62.5" x2="687.5" y2="562.5">
	<stop  offset="0.4025" style="stop-color:#7DD8D6"/>
	<stop  offset="1" style="stop-color:#4591CB"/>
</linearGradient>
<rect class="st0" width="750" height="500"/>
<g>
	<g>
		<g class="st1">
			
				<image style="display:inline;overflow:visible;" width="1838" height="1388" xlink:href="C5AA6F56.png"  transform="matrix(0.48 0 0 0.48 -72.8759 -74.8647)">
			</image>
		</g>
		<g>
			<path class="st2" d="M769.4-1.7v501.9c0,5.9-4.8,10.6-10.6,10.6H-22.5c-5.9,0-10.6-4.8-10.6-10.6V-1.7c0-5.9,4.8-10.6,10.6-10.6
				h781.2C764.7-12.3,769.4-7.6,769.4-1.7z"/>
			<text transform="matrix(1 0 0 1 20.9131 147.357)" class="st3"><tspan x="0" y="0" class="st4 st5 st6">EXPLORE</tspan><tspan x="0" y="57" class="st7 st8 st9">NATURE</tspan></text>
			<g class="st3">
				<g class="st10">
					<g>
						<g>
							<linearGradient id="SVGID_2_" gradientUnits="userSpaceOnUse" x1="24.7581" y1="443.2993" x2="40.986" y2="443.2993">
								<stop  offset="0" style="stop-color:#41A7AF"/>
								<stop  offset="1" style="stop-color:#66C6BF"/>
							</linearGradient>
							<path class="st11" d="M32.9,435.2c-4.5,0-8.1,3.6-8.1,8.1c0,4.5,3.6,8.1,8.1,8.1c4.5,0,8.1-3.6,8.1-8.1
								C41,438.8,37.4,435.2,32.9,435.2z M34.7,440.8c0,0-0.6,0-0.9,0c-0.3,0-0.4,0.1-0.4,0.4c0,0.3,0,0.8,0,0.8h1.2l-0.1,1.3h-1.1
								v3.9h-1.6v-3.9h-0.8v-1.3h0.8c0,0,0-0.2,0-1.1c0-1,0.5-1.5,1.7-1.5c0.2,0,1.1,0,1.1,0V440.8z"/>
						</g>
						<text transform="matrix(1 0 0 1 51.7378 445.937)" class="st12 st13 st14">Your Facebook</text>
					</g>
					<g>
						<g>
							<g>
								<g>
									<g>
										<linearGradient id="SVGID_3_" gradientUnits="userSpaceOnUse" x1="110.9687" y1="443.2991" x2="117.0752" y2="443.2991">
											<stop  offset="0" style="stop-color:#41A7AF"/>
											<stop  offset="1" style="stop-color:#66C6BF"/>
										</linearGradient>
										<path class="st15" d="M116.9,441.1c-0.1-0.2-0.2-0.3-0.3-0.4c-0.1-0.1-0.3-0.2-0.4-0.3c-0.1-0.1-0.3-0.1-0.7-0.1
											c-0.4,0-0.5,0-1.5,0c-1,0-1.1,0-1.5,0c-0.4,0-0.6,0.1-0.7,0.1c-0.2,0.1-0.3,0.1-0.4,0.3c-0.1,0.1-0.2,0.3-0.3,0.4
											c-0.1,0.1-0.1,0.3-0.1,0.7c0,0.4,0,0.5,0,1.5c0,1,0,1.1,0,1.5c0,0.4,0.1,0.6,0.1,0.7c0.1,0.2,0.1,0.3,0.3,0.4
											c0.1,0.1,0.3,0.2,0.4,0.3c0.1,0,0.3,0.1,0.7,0.1c0.4,0,0.5,0,1.5,0c1,0,1.1,0,1.5,0c0.4,0,0.6-0.1,0.7-0.1
											c0.2-0.1,0.3-0.2,0.4-0.3c0.1-0.1,0.2-0.3,0.3-0.4c0-0.1,0.1-0.3,0.1-0.7c0-0.4,0-0.5,0-1.5c0-1,0-1.1,0-1.5
											C117,441.4,117,441.2,116.9,441.1z M114,445.2c-1.1,0-1.9-0.9-1.9-1.9c0-1.1,0.9-1.9,1.9-1.9c1.1,0,1.9,0.9,1.9,1.9
											C115.9,444.4,115.1,445.2,114,445.2z M116,441.7c-0.3,0-0.5-0.2-0.5-0.5c0-0.3,0.2-0.5,0.5-0.5c0.2,0,0.4,0.2,0.4,0.5
											C116.5,441.5,116.3,441.7,116,441.7z"/>
									</g>
								</g>
								<g>
									<g>
										<linearGradient id="SVGID_4_" gradientUnits="userSpaceOnUse" x1="105.908" y1="443.2993" x2="122.1359" y2="443.2993">
											<stop  offset="0" style="stop-color:#41A7AF"/>
											<stop  offset="1" style="stop-color:#66C6BF"/>
										</linearGradient>
										<path class="st16" d="M114,435.2c-4.5,0-8.1,3.6-8.1,8.1c0,4.5,3.6,8.1,8.1,8.1c4.5,0,8.1-3.6,8.1-8.1
											C122.1,438.8,118.5,435.2,114,435.2z M117.7,444.8c0,0.4-0.1,0.7-0.2,0.9c-0.1,0.2-0.2,0.5-0.4,0.6
											c-0.2,0.2-0.4,0.3-0.6,0.4c-0.2,0.1-0.5,0.2-0.9,0.2c-0.4,0-0.5,0-1.5,0c-1,0-1.1,0-1.5,0c-0.4,0-0.7-0.1-0.9-0.2
											c-0.3-0.1-0.5-0.2-0.7-0.4c-0.2-0.2-0.3-0.4-0.4-0.6c-0.1-0.2-0.2-0.5-0.2-0.9c0-0.4,0-0.5,0-1.5c0-1,0-1.1,0-1.5
											c0-0.4,0.1-0.7,0.2-0.9c0.1-0.3,0.2-0.5,0.4-0.7c0.2-0.2,0.4-0.3,0.7-0.4c0.2-0.1,0.5-0.2,0.9-0.2c0.4,0,0.5,0,1.5,0
											c1,0,1.1,0,1.5,0c0.4,0,0.7,0.1,0.9,0.2c0.2,0.1,0.5,0.2,0.6,0.4c0.2,0.2,0.3,0.4,0.4,0.7c0.1,0.2,0.2,0.5,0.2,0.9
											c0,0.4,0,0.5,0,1.5C117.8,444.3,117.8,444.4,117.7,444.8z"/>
									</g>
								</g>
								<g>
									<linearGradient id="SVGID_5_" gradientUnits="userSpaceOnUse" x1="112.7837" y1="443.2993" x2="115.26" y2="443.2993">
										<stop  offset="0" style="stop-color:#41A7AF"/>
										<stop  offset="1" style="stop-color:#66C6BF"/>
									</linearGradient>
									<path class="st17" d="M114,442.1c-0.7,0-1.2,0.5-1.2,1.2c0,0.7,0.5,1.2,1.2,1.2c0.7,0,1.2-0.5,1.2-1.2
										C115.3,442.6,114.7,442.1,114,442.1z"/>
								</g>
							</g>
						</g>
						<text transform="matrix(1 0 0 1 133.3916 446.3189)" class="st12 st13 st14">Your Instagram</text>
					</g>
					<g>
						<g>
							<g>
								<g>
									<g>
										<g>
											<linearGradient id="SVGID_6_" gradientUnits="userSpaceOnUse" x1="191.0496" y1="443.2039" x2="197.0084" y2="443.2039">
												<stop  offset="0" style="stop-color:#41A7AF"/>
												<stop  offset="1" style="stop-color:#66C6BF"/>
											</linearGradient>
											<path class="st18" d="M194,440.2c-1.5,0-2.8,1.2-3,2.7c0,0.1,0,0.2,0,0.3c0,0.7,0.2,1.3,0.6,1.7l-0.4,1.1l1.1-0.4
												c0.5,0.3,1,0.5,1.6,0.5c1.6,0,3-1.3,3-3c0-0.1,0-0.2,0-0.2C196.9,441.5,195.6,440.2,194,440.2z M195.8,444.5
												c-0.1,0.2-0.4,0.4-0.6,0.4c-0.2,0-0.2,0.1-1-0.2c-0.9-0.3-1.4-1.2-1.5-1.3c0,0-0.2-0.3-0.3-0.6c0-0.1,0-0.2,0-0.3
												c0-0.4,0.2-0.6,0.3-0.7c0.1-0.1,0.2-0.1,0.2-0.1c0.1,0,0.1,0,0.2,0c0.1,0,0.1,0,0.2,0.1c0.1,0.2,0.2,0.6,0.3,0.6
												c0,0,0,0.1,0,0.2c0,0,0,0.1-0.1,0.1c0,0,0,0,0,0c0,0.1-0.1,0.1-0.1,0.2c0,0-0.1,0.1,0,0.2c0,0.1,0.2,0.4,0.5,0.6
												c0.3,0.3,0.6,0.4,0.7,0.4c0.1,0,0.1,0,0.2,0c0-0.1,0.2-0.3,0.3-0.3c0.1-0.1,0.1-0.1,0.2,0c0.1,0,0.5,0.2,0.6,0.3
												c0.1,0,0.1,0.1,0.2,0.1C195.8,444.1,195.8,444.3,195.8,444.5z"/>
										</g>
									</g>
									<g>
										<g>
											<linearGradient id="SVGID_7_" gradientUnits="userSpaceOnUse" x1="185.8468" y1="443.2993" x2="202.0746" y2="443.2993">
												<stop  offset="0" style="stop-color:#41A7AF"/>
												<stop  offset="1" style="stop-color:#66C6BF"/>
											</linearGradient>
											<path class="st19" d="M194,435.2c-4.5,0-8.1,3.6-8.1,8.1c0,4.5,3.6,8.1,8.1,8.1c4.5,0,8.1-3.6,8.1-8.1
												C202.1,438.8,198.4,435.2,194,435.2z M197.6,443.2c0,1.9-1.6,3.5-3.5,3.5c-0.6,0-1.2-0.2-1.7-0.4l-2,0.6l0.6-1.9
												c-0.3-0.5-0.5-1.2-0.5-1.8c0,0,0-0.1,0-0.2c0.1-1.9,1.6-3.4,3.5-3.4C196,439.7,197.5,441.2,197.6,443.2L197.6,443.2z"/>
										</g>
									</g>
								</g>
							</g>
						</g>
						<text transform="matrix(1 0 0 1 213.0938 445.3277)" class="st12 st13 st14">Your Whatsapp</text>
					</g>
				</g>
			</g>
			<g class="st3">
				<g class="st10">
					<text transform="matrix(1 0 0 1 26.3643 59.1006)" class="st20 st13 st21">YOUR LOGO</text>
				</g>
			</g>
			<g class="st3">
				<g class="st10">
					<text transform="matrix(1 0 0 1 136.711 348.5347)" class="st12 st13 st21">or Log In</text>
				</g>
			</g>
			<g class="st3">
				<rect x="692.4" y="42.4" class="st22" width="17.3" height="1.9"/>
				<rect x="692.4" y="47.8" class="st22" width="17.3" height="1.9"/>
				<rect x="692.4" y="53.1" class="st22" width="17.3" height="1.9"/>
			</g>
			<g>
				<g>
					<g>
						<defs>
							<path id="SVGID_8_" d="M769.4-1.7v501.9c0,5.9-4.8,10.6-10.6,10.6H-22.5c-5.9,0-10.6-4.8-10.6-10.6V-1.7
								c0-5.9,4.8-10.6,10.6-10.6h781.2C764.7-12.3,769.4-7.6,769.4-1.7z"/>
						</defs>
						<clipPath id="SVGID_9_">
							<use xlink:href="#SVGID_8_"  style="overflow:visible;"/>
						</clipPath>
						<g class="st23">
							<defs>
								<path id="SVGID_10_" d="M771.6,152.1v345.3c0,9.7-7.4,17.5-16.6,17.5H347.4c-13.8-22.7-22.1-49.4-24.4-76.4
									c-3.7-42.9,6.8-86.3,24.6-125.1c14.3-31,33.8-61.9,32.2-96.3c-2-45.2-38.8-78.9-57.6-119.5c-15.6-33.9-17.9-74.2-7.2-110.1
									h283.5c8.5,20.6,16.2,41.7,27.9,60.5c22.5,36,58.3,60.4,95,79.6C737.9,136.2,754.8,144,771.6,152.1z"/>
							</defs>
							<clipPath id="SVGID_11_">
								<use xlink:href="#SVGID_10_"  style="overflow:visible;"/>
							</clipPath>
							<g class="st24">
								<linearGradient id="SVGID_12_" gradientUnits="userSpaceOnUse" x1="517.7772" y1="518.149" x2="517.7772" y2="-33.4249">
									<stop  offset="0.6406" style="stop-color:#7DD8D6"/>
									<stop  offset="1" style="stop-color:#4591CB"/>
								</linearGradient>
								<rect x="259.7" y="-33.4" class="st25" width="516.1" height="551.6"/>
								<linearGradient id="SVGID_13_" gradientUnits="userSpaceOnUse" x1="522.6495" y1="310.2002" x2="522.6495" y2="134.5418">
									<stop  offset="0" style="stop-color:#FFFFFF;stop-opacity:0"/>
									<stop  offset="0.9948" style="stop-color:#FFFFFF"/>
								</linearGradient>
								<circle class="st26" cx="522.6" cy="222.4" r="87.8"/>
								<linearGradient id="SVGID_14_" gradientUnits="userSpaceOnUse" x1="517.7772" y1="268.7948" x2="517.7772" y2="311.6063">
									<stop  offset="0" style="stop-color:#41A7AF"/>
									<stop  offset="1" style="stop-color:#66C6BF"/>
								</linearGradient>
								<path class="st27" d="M775.8,286.2c-14.2-4.5-28.2-8.8-43-12.3c-23.3-5.1-44.6-18.2-65.9-13.1
									c-38.8,10.1-73.6,31.3-116.3,33.4c-32.9,2-58.1-17.2-87.2-27.3c-3.9-1-7.8,0-11.6,0c-21.3,4-31,20.2-52.3,13.1
									c-44.6-15.2-60.1-41.4-106.6-56.6c-12.5-3.9-23.6-3-33.3,0.4v152.5c38.8,0.8,77.7,1.3,116.6-1.3c54.3-4,87.1-5,135.5-18.1
									c25.2-7.1,54.4-21.3,83.5-26.4c42.6-6.1,79.5-18.2,122.1-22.2c19.2-1.6,39-1.8,58.5-0.6"/>
								<linearGradient id="SVGID_15_" gradientUnits="userSpaceOnUse" x1="506.2542" y1="315.387" x2="521.7582" y2="429.082">
									<stop  offset="0" style="stop-color:#41A7AF"/>
									<stop  offset="1" style="stop-color:#66C6BF"/>
								</linearGradient>
								<path class="st28" d="M707.3,294.5c-50,7.1-93.1,28.5-143.1,39.3c-34.1,8.9-70.4-12.5-99.9,0
									c-56.8,23.2-93.1,71.4-156.7,78.5c-15.4,1.5-30.8,2.4-46.2,2.9v103h514.5V293.4C753,291.4,729.9,291.7,707.3,294.5z"/>
								<path class="st29" d="M775.8,392.1c-111,7.8-220.2-8.8-325.9-41.4c-29.1-6.6-62-9.9-91.1-8.3c-33.8,1.1-66-11-99.2-18.3v194
									h516.1"/>
								<linearGradient id="SVGID_16_" gradientUnits="userSpaceOnUse" x1="259.7054" y1="421.1349" x2="775.8491" y2="421.1349">
									<stop  offset="0" style="stop-color:#000000;stop-opacity:0"/>
									<stop  offset="1" style="stop-color:#000000"/>
								</linearGradient>
								<path class="st30" d="M422.8,422.5c-23.3-9.7-46.5-23.3-52.3-50.4c-1.2-9.7-0.2-21.6,5.5-30.2c-5.8,0-11.6,0.1-17.1,0.4
									c-33.8,1.1-66-11-99.2-18.3v194h516.1V478C656.7,474,538.4,462.4,422.8,422.5z"/>
								<path class="st31" d="M775.8,311.2c-54.8,12.1-103.1,23.2-141.1,67.9c-13.6,16.1-39.6,43-62.7,40.3
									c-82-9.5-97.9,30.9-148.3,38.1c-59.3,8.3-112.8,1.8-164.1,28.6v32.1h516.1"/>
								<linearGradient id="SVGID_17_" gradientUnits="userSpaceOnUse" x1="546.7733" y1="406.0502" x2="754.1381" y2="594.0349">
									<stop  offset="0" style="stop-color:#000000;stop-opacity:0"/>
									<stop  offset="1" style="stop-color:#000000"/>
								</linearGradient>
								<path class="st32" d="M775.8,311.2c-33.4,7.4-64.4,14.4-92.1,28.8C694,405.8,634,444.4,574,459.4
									c-11.6,3.9-23.3,17.4-32.9,29.1c-17.4,15.5-40.7,17.4-62,15.5c-36.8,0-75.6-15.5-112.4-3.9c-11.2,3.2-21.1,9.7-29.8,18.1
									h439.1V311.2z"/>
								<path class="st20" d="M506.7,514.5c-19.3-14.2-45.6-8.9-66.5-20.3c-15.5-9.7-27.1-31-42.6-34.9
									c-77.5-25.2-77.5-120.2-106.6-180.2c-7.3-14.6-18.4-30.6-31.3-44.9v283.9h246.9C506.7,517,506.7,515.7,506.7,514.5z"/>
								<path class="st20" d="M775.8,202.8c-3.1,1.4-5.8,3.6-8.1,6.5c-17.4,25.2-31,50.4-46.5,77.5c-19.4,31,3.9,71.7-15.5,98.8
									c-17.4,25.2-32.9,44.6-48.4,71.7c-5.8,7.8-11.6,11.6-19.4,15.5c-29.3,14.6-70.7,17.2-88.2,45.2h226.2"/>
								<g>
									<g>
										<path class="st20" d="M459.3,315.1c1.1-0.3,2.3-0.1,3.4,0c3.1,0.4,5.4-1.3,7.8-2.8c1.2-0.7,2.6-1.2,3.7-2
											c1.3-0.8,2.7-1.7,3.5-2.9c1.2-1.7,2.2-3.6,4.5-4.3c0.3-0.1,0.4-0.9,0.6-1.3c0.1-0.4,0.1-0.9,0.3-1.1
											c1.2-1.2,1.8-1,2.3,0.7c0.3,0.8,0.7,1.6,1.1,2.4c0,2-0.2,3.6-0.8,5.3c1.5,12,1,21.5-4.3,33.6c-1,2.2-1.8,6.1-0.5,8.2
											c1.4,2.2-1.6,4.8-2.2,7.7c-0.4,2,1,3.9,3.1,4.1c1,0.1,1.8,0.2,1.9,0.2c2.7,1.1,2.1,2.8,2.1,3.4c-0.3,3.2-1.1,6.4-1.1,9.5
											c-0.1,3.7,0.2,7.4,0.6,11.1c0.2,1.9,0.5,3.7,0.7,5.6c0.1,4.9,0.5,9.8,1.5,14.6c-0.4,1.6,0,3.4,0.3,5.1
											c0.4,2.2,0.6,4.4,0.8,6.7c0.3,3.1,1,6.3,0.8,9.4c-0.1,2.3,0.3,4.6,1.7,6.4c3.4,4.4,1.4,9.2,0.9,14
											c-0.4,4.8-0.6,9.9,0.3,14.6c1.3,6.6,3.8,12.9,5.5,19.4c1,3.8,1.4,7.8,2,11.8c0,0.3-0.3,0.9-0.5,0.9c-1.5,0-1.4,0.8-1,1.9
											c0.2,0.6,0.1,1.2,0.2,1.9c0.5,2.5,1,5,1.5,7.6c0.1,0.6,0.1,1.6,0,2.2c-0.3,1.5-0.4,3.1-0.9,4.6c-0.5,1.6-1.1,3.2-1.9,4.7
											h19.7c-0.1-1.7-0.2-3.4-0.4-5.1c-0.2-3.1-0.8-6.1-1.2-9.2c-0.1-0.7-0.1-1.9,0.1-2.6c0.7-2.5,0.2-5.1-1.4-6.7
											c-3.9-3.9-1.5-8.4-1.7-12.6c-0.1-1.2,0.3-2.5,0.4-3.7c0.7-8.3,1.4-16.6,0-25c-0.9-5.6,0-11.1,2.1-16.4
											c0-0.1,0.1-0.2,0.2-0.4c0.4-1.9,0.7-3.6,2.2-5.2c1.2-1.3,1.6-3.3,2.1-5.1c1-3.3,1.9-6.5,2.8-9.7c0.4,2.7,1.1,5.6,1.2,8.5
											c0.1,1.8-0.8,3.7-1.1,5.6c-0.1,0.5,0.2,1.4,0.6,1.6c1.8,0.8,2.5,1.9,3,4c1.1,4.4,3.1,8.5,4.2,12.9c0.8,2.9,1,6,1,9
											c-0.1,4.7-1.2,9.4-0.9,14.1c0.3,5.2,1.7,10.4,2.6,15.6c0.3,1.8,0.7,3.6,0.9,5.4c0,0.4-0.3,0.9-0.6,1.2
											c-1.5,1.2-1.3,3.2,0.3,4.3c0.3,0.2,0.5,1.1,0.3,1.3c-2.6,2.8-3.2,6.9-1.6,10.4c0.2,0.5,0.2,1.1,0.1,1.7
											c-0.2,1.9-0.2,3.8-0.6,5.6c-0.1,0.2-0.1,0.5-0.2,0.7h25.5c-0.4-2.4-1.4-4.6-2.8-6c-0.6-0.6-1.3-1.3-2-1.5
											c-2-0.6-2-1.9-1.8-3.7c0.2-1.7,0-3.4-0.4-5c-0.2-1-1.4-1.9-1.5-2.9c-0.2-1.9,0-3.8,0.3-5.6c0.9-5.3,2-10.6,2.9-15.9
											c0.7-3.8,1.4-7.6,2-11.4c0.7-4.7-0.1-9.3-1.5-13.6c-1.8-5.4-1.3-10.8-1.2-16.3c0-0.4,0.9-0.7,1.4-1.2
											c0.4-0.5,1.1-1,1.1-1.5c0.3-4,0.3-8,0.8-11.9c1-7.6,2.5-15.1,3.2-22.8c0.5-5.1,0.2-10.4,0.3-15.5c0-0.6,0.5-1.2,0.5-1.8
											c-0.1-1.5-0.4-3.1-0.6-4.6c-0.1-0.4-0.2-0.8-0.2-1.2c0-4.3,0-8.6,0-12.9c0-0.2,0.7-0.7,1-0.6c1.1,0.2,1.7,0.1,1.8-1.2
											c0.2-1.6,0.6-3.3,1.1-4.8c0.1-0.4,1-0.8,1.4-0.7c2.6,0.5,3.3-0.3,3.7-3.3c0.1-0.9,0.4-1.7,0.7-2.5
											c0.9-1.9,0.3-3.1-1.6-3.7c-0.5-0.2-1.1-0.7-1.2-1.2c-0.4-3.4-0.7-6.8-1-10.2c-0.2-1.6-0.4-3.3-0.6-4.9
											c-0.1-0.5-0.3-1.1-0.1-1.4c0.8-1.6-0.3-2.7-0.8-4c-0.3-0.9,0.2-2.3,0.5-3.4c0.4-1.5,1.1-2.4,2.5-0.6c0,0,0.1,0.1,0.1,0.1
											c3,1.3,6,2.8,9.1,3.9c0.7,0.3,2-0.2,2.7-0.8c1.4-1.3,2.6-2.8,3.8-4.4c0.4-0.5,0.5-1.3,0.4-1.8c-0.5-2.3,0.2-4.1,1.6-6
											c2.2-3.1,1.7-5.4-0.9-8.4c0-0.1-0.1-0.2-0.1-0.4c0.1-1.6,0-3.3-0.3-4.8c-0.4-1.8-1.3-3.5-2.7-4.8
											c-0.4-0.4-1.2-0.9-1.9-1.4c-0.8-1.3-1.6-2.6-2.4-3.9c-0.2-0.3-0.3-0.6-0.3-0.8c0.5-4.7-0.9-9.2-2.5-13.4
											c-1.1-3-3.2-5.6-4.8-8.4c-0.2-0.3-0.3-0.6-0.4-0.8c0.3,0,0.6-0.1,0.9-0.1c0.2,0,0.4,0,0.5,0c5,0.1,4.2,0.7,4.9-4.2
											c0.6-4.1-0.1-8.4-0.4-12.6c0-0.4-0.9-1.1-1.4-1.1c-5.5,0.1-11,0.2-16.5,0.4c-0.3,0-0.6,0-0.9,0c-0.3-0.8-0.6-1.6-1-2.4
											c-0.5-0.9-1.4-1.7-1.8-2.7c-0.3-0.6-0.3-1.3-0.4-1.9c0.1-0.5,0-1-0.3-1.4c-0.1-0.2-0.2-0.5-0.3-0.7
											c-1.8-3.6-5.6-4.2-9.3-4.8c0.3-1.7,0.7-3.6,0.8-5.4c0.1-0.7-0.9-1.4-1.3-2.1c-0.1-0.2-0.4-0.4-0.4-0.6
											c0.1-3.2,0.4-6.4,0.2-9.5c-0.1-1.7-0.9-3.3-1.5-4.9c-0.2-0.6-0.7-1.2-0.7-1.7c0.1-2.1-1.7-3-2.7-4.4
											c-1.5-2-3.7-2.2-5.8-2.4c-1.1-0.8-2.3-1.4-3.6-1.7c-2.3-0.5-4.3,0.4-6.5,0.8c-3.8,0.7-6.5,4.3-6,8c-0.4,0.7-0.9,1.4-1.5,2
											c-2.6,2.6-2.4,5.9-2.9,9.2c-0.3,2,0,4.1-1.5,5.9c-0.6,0.7,0.4,2.8,0.6,4.2c0.2,1.1,0.3,2.2,0.4,3.4
											c-1.4,0-2.8,0.1-4.1,0.1c-0.2,0-0.4-0.2-0.6-0.1c-2.8,1.1-5.6,2.2-8.3,3.6c-0.6,0.3-1.2,1.6-1.1,2.4
											c0.1,2.2,0.4,4.4,0.7,6.5c0.2,1.2-0.3,1.5-1.4,1.5c-5.9-0.1-11.8-0.1-17.7-0.3c-1.7,0-2.2,0.5-2.1,2.1c0.1,4,0,8.1,0,12.2
											c0,1.7,0.4,2.6,2.5,2.4c1.6-0.2,3.1-0.2,4.7-0.3c1.4,0.2,2.8,0.5,4.2,0.7c-0.1,0-0.3,0.1-0.4,0.1
											c-0.8,0.2-1.6,0.5-2.1,1.1c-0.7,0.9-1,2.1-1.6,3c-0.7,0.9-1.6,1.6-2.5,2.3c-0.9,0.8-1.7,1.6-2.6,2.4
											c-3.6,2.2-6.6,5-8.9,8.5c-1.3,1.9-2.1,4-2.9,6.1c-0.3,0.3-0.7,0.7-1,0.9c-2.2,1.5-4.5,2.9-6.6,4.5
											c-2.9,2.1-3.6,5.2-2.6,8.6c0.3,1-0.3,2.2-0.5,3.3c-0.3,1.2-0.9,2.4-0.8,3.7c0,1.4,0.6,2.7,1,4
											C453.8,315.3,455.8,315.9,459.3,315.1z"/>
									</g>
								</g>
								<g>
									<g>
										<path class="st20" d="M305.3,348.8c0.6,0.8,1.2,1.5,1.8,2.3c0.2,0.2,0.4,0.3,0.6,0.4c0.8,0.2,1.3,0.7,1.3,1.6
											c0,0.9,0.5,1.4,1.4,1.6c0.3,0.1,0.5,0.2,0.9,0.4c0.2-0.3,0.3-0.7,0.5-1c0.4-0.7,0.8-0.8,1.4-0.3c0.1,0.1,0.2,0.2,0.4,0.3
											c0.2,0.1,0.5,0.2,0.7,0.3c0-0.3,0-0.6-0.1-0.8c-0.5-1-0.5-2.1-0.2-3.2c0.1-0.5,0.5-0.9,0.9-1.2c0.2-0.1,0.7,0.3,1,0.5
											c0.2,0.1,0.3,0.2,0.6,0.4c0-0.4,0-0.6-0.1-0.8c-0.4-1.6-0.1-3,0.7-4.4c0.2-0.3,0.6-0.4,0.8-0.6c0.2-0.1,0.5-0.3,0.5-0.4
											c-0.3-1.4,0.3-2.7,0.5-4c0.2-1.3,0.3-2.5,0.3-3.8c0-0.7,0.3-1.3,0.8-1.7c0.4-0.4,1.1-0.2,1.4,0.4c0.4,0.8,0.7,1.7,1,2.6
											c0.4,1.2,0.7,2.4,1.2,3.6c0.6,1.4,1.2,2.7,1.2,4.2c0,0.1,0.3,0.4,0.5,0.4c0.7,0,0.9,0.4,1.1,1c0.3,1.2,0.3,2.4-0.1,3.6
											c-0.2,0.5,0,0.7,0.6,0.6c1.5-0.2,2,0.3,1.6,1.8c-0.1,0.5-0.3,1.1-0.5,1.6c-0.1,0.4,0,0.6,0.4,0.5c1.2-0.1,1.6,0.3,1.6,1.5
											c0,1.1-0.4,2-0.8,2.9c0,0.1-0.1,0.2-0.1,0.4c0.3-0.1,0.6-0.1,0.8-0.2c0.8-0.3,1.4,0.2,1.1,1c-0.2,1-0.7,1.9-1,2.8
											c-0.1,0.4-0.2,0.9-0.2,1.4c0.1,1.3-0.3,2.4-0.9,3.5c-0.4,0.6-0.6,1.2-0.5,1.9c0.2,1-0.3,1.8-0.8,2.7
											c-0.6,1.2-1.1,2.4-1.7,3.6c0.1,0.1,0.2,0.1,0.3,0.2c0.2-0.2,0.4-0.4,0.5-0.7c0.2-0.5,0.4-1.1,0.7-1.6
											c0.3-0.6,0.7-1,1.4-1.1c0.6-0.1,0.9-0.5,1.1-1c0.3-0.9,0.6-1.8,1.5-2.4c1.1-0.7,1.4-1.1,2.2-2.2c0.7-1,1.4-1.9,2.8-1.9
											c0.3,0,0.6-0.3,0.8-0.6c0.9-1.4,2.1-2.3,3.7-2.8c0.3-0.1,0.6-0.4,0.9-0.6c1.5-1.1,3-2.2,4.5-3.2c0.1-0.1,0.3-0.1,0.4-0.2
											c0.5-0.1,0.7,0.1,0.6,0.6c-0.3,0.9-0.7,1.7-1,2.5c-0.2,0.5-0.4,1.1-0.4,1.7c-0.1,1-0.4,1.8-0.9,2.6
											c-0.3,0.4-0.4,0.8-0.1,1.3c0.3,0.6,0.1,1.2-0.3,1.7c-0.4,0.4-0.6,0.9-0.4,1.5c0,0.1,0.1,0.3,0.2,0.3
											c0.4,0.2,0.8,0.3,1.3,0.5c0.8-0.8,1.6-1.8,2.5-2.7c0.4-0.4,0.9-0.9,1.4-0.3c1.4-1.5,2.8-2.8,4.2-4.3
											c1.2-1.3,2.2-2.7,3.3-4.1c0.6-0.7,1.3-1.4,2-2.1c0.2-0.2,0.5-0.1,0.7-0.2c0,0.3,0.2,0.6,0.1,0.8c-1,2.4-2.1,4.7-3.2,7.1
											c-0.4,1-0.8,2.1-1.2,3.1c-0.2,0.6-0.6,1.1-0.8,1.7c-0.1,0.2-0.1,0.5,0,0.6c0.7,0.4,0.6,1,0.3,1.6
											c-0.8,1.5-1.4,3.2-2.8,4.4c0,0.1,0,0.1,0.1,0.1c1.1,0.6,1.3,1,0.7,2.2c-0.6,1.3-1.2,2.6-2.5,3.4c-0.2,0.1-0.3,0.3-0.5,0.4
											c0.9,1.1,1,1.4,0.2,2.6c-0.7,1-1.6,1.8-2.5,2.6c-0.1,0.2-0.4,0.2-0.6,0.4c0.9,0.6,1.1,1.3,0.4,2.1c-0.3,0.4-0.7,0.7-1.1,1
											c0.5,0.1,1,0.1,1.5,0.2c0.2,0,0.5,0.2,0.6,0.4c0.1,0.1-0.2,0.4-0.3,0.6c-0.1,0.2-0.3,0.4-0.3,0.6c0,0.4-0.1,0.5-0.5,0.5
											c-1.2,0-1.8,0.9-2.5,1.7c-0.4,0.5-0.6,1-0.9,1.5c-0.4,0.6-0.8,1.1-1,1.9c-0.1,0.4-0.6,0.8-0.9,1.1
											c-0.4,0.4-0.8,0.8-1.1,1.2c-0.3,0.3-0.2,0.6,0.1,0.7c0.4,0.1,0.9,0.2,1.4,0.2c0.5-0.1,0.8-0.2,1.3,0
											c0.3,0.1,0.7,0.1,1-0.1c0.6-0.3,1.1-0.3,1.6,0.1c0,0,0.1,0.1,0.1,0.1c0.8,0.2,1.5,0.8,2.2,1c0.9,0.2,2-0.1,2.9-0.4
											c0.6-0.2,1.1-0.3,1.6,0c0.7,0.4,1.4,0.5,2.2,0.6c1,0,2,0.3,3,0.5c0.2,0,0.5,0.3,0.5,0.4c0,0.2-0.2,0.4-0.4,0.6
											c-0.8,0.6-1.7,1.2-2.4,1.8c-0.9,0.7-0.9,1.1-0.1,1.9c0.5,0.5,0.5,1.2,0.4,1.9c-0.2,0.6,0,1,0.5,1.3c0.7,0.4,0.9,1,0.7,1.7
											c-0.2,0.9,0.6,1,1,1.4c0.1,0.1,0.7-0.2,1-0.4c0.8-0.6,1.5-1.5,2.6-1.7c0.2,0,0.4-0.4,0.6-0.6c0.3-0.5,0.6-1,1-1.4
											c0.4-0.4,0.9-0.7,1.5-0.5c0.5,0.1,0.8-0.1,1.1-0.5c0.3-0.5,0.7-0.9,1.1-1.2c0.4-0.3,1-0.4,1.5-0.2
											c0.6,0.3,0.9,0.1,1.3-0.4c0.7-0.9,1.6-1.7,2.9-1.4c0.2,0.1,0.6-0.1,0.8-0.3c0.9-0.7,1.8-1.3,3-0.9c0.2,0.1,0.6,0,0.8-0.2
											c1-0.7,2-1.1,3.3-1.1c0.7,0,1.3-0.6,2-0.9c0.5-0.2,1-0.3,1.5-0.5c0.3-0.1,0.6,0,0.8-0.1c2.3-1,4.5-2.2,6.2-4
											c0.1-0.1,0.3-0.2,0.4-0.3c0.4-0.2,0.7,0,0.6,0.5c-0.1,0.3-0.2,0.6-0.4,0.9c-0.7,1.3-1.5,2.6-2.3,3.9
											c-0.1,0.2-0.2,0.5-0.2,0.7c-0.1,1.4-0.8,2.6-1.6,3.6c-0.3,0.5-0.5,0.9-0.4,1.5c0.2,1.2-0.3,2.2-1.2,2.9
											c-0.4,0.3-0.6,0.7-0.5,1.2c0.2,0.9-0.2,1.9-1,2.4c-0.5,0.3-0.7,0.7-0.5,1.3c0.3,1-0.1,1.7-1,2.1c-1.1,0.5-1.1,0.5-0.8,1.6
											c0.1,0.5-0.1,1-0.6,1.2c-0.5,0.2-1,0.4-1.5,0.5c-0.7,0.2-0.9,0.6-0.4,1.3c0.4,0.6,0.4,1-0.3,1.4c-0.3,0.2-0.5,0.3-0.8,0.5
											c-0.2,0.2-0.5,0.4-0.6,0.7c-0.1,0.3,0,0.7,0.1,0.9c0.1,0.1,0.6,0.1,0.8-0.1c0.8-0.7,1.8-1.2,2.8-1.5
											c0.3-0.1,0.6-0.2,0.9-0.2c1-0.2,1.3,0,1.5,1c0.2,0.8,0.6,1,1.4,0.5c1.1-0.6,2.1-1.4,3.4-1.6c0.8-0.1,1,0,1,0.9
											c0,1,0.6,1.4,1.6,1c0.9-0.4,1.8-0.7,2.7-0.9c0.3-0.1,0.6,0,1,0c0.5,0,0.7,0.3,0.7,0.8c0,0.9,0.4,1.1,1.2,0.8
											c0.9-0.3,1.8-0.6,2.8-0.9c0.9-0.2,1.2,0.1,1.1,1c-0.1,1.1,0.4,1.5,1.4,1.2c1-0.3,2-0.4,2.9,0c0.2,0.1,0.5,0.3,0.6,0.6
											c0.2,0.7,0.6,0.8,1.2,0.8c0.9,0,1.9-0.1,2.8,0c0.3,0,0.6,0.3,0.7,0.5c0.2,0.3,0.5,0.5,0.9,0.5c1.4,0.1,2.8,0.3,4.2,0.4
											c1.7,0.2,3.3,0.3,5,0.4c0.8,0.1,1.6,0.1,2.4,0.3c0.2,0,0.4,0.3,0.6,0.4c-0.1,0.2-0.2,0.4-0.4,0.5c-1,0.3-1.9,0.6-2.9,1
											c-0.9,0.4-1.8,0.8-2.7,1.2c-0.3,0.1-0.6,0.3-0.9,0.3c-0.5,0.1-0.8,0.3-1.1,0.7c-0.3,0.3-0.6,0.6-1,0.7
											c-0.5,0.2-0.9,0.3-1.4,0.4c-0.6,0.1-1.1,0.4-1.2,1.1c-0.1,0.3-0.4,0.6-0.7,0.8c-0.4,0.2-1,0.3-1.4,0.3
											c-1,0-1.1,0.1-1.2,1.1c0,0.2-0.3,0.6-0.5,0.7c-0.9,0.2-1.8,0.3-2.7,0.5c-0.3,0-0.5,0-0.8,0c-0.6,0.1-0.8,0.4-0.6,1
											c0.2,0.7-0.1,1.1-0.9,1.1c-1,0-2-0.1-3-0.2c-0.9-0.1-1.1,0-1.1,0.9c0,0.5-0.2,0.9-0.8,0.9c-0.8,0-1.6-0.1-2.3-0.2
											c-0.8-0.1-0.9,0-1.1,0.7c-0.1,0.2-0.3,0.6-0.6,0.6c-0.7,0.1-1.4,0.1-2.1,0c-0.8-0.1-1.5-0.5-2.3-0.7
											c-0.6-0.1-0.8,0.1-0.9,0.7c0,0.8-0.6,1.2-1.2,0.8c-1.4-0.9-2.9-0.7-4.4-1c-0.4-0.1-0.8,0-1,0.5c-0.1,0.3-0.6,0.5-1,0.7
											c-0.2,0.1-0.4,0-0.8,0.1c0.8,0.3,1.4,0.6,2,0.9c0.6,0.2,0.8,0.6,0.6,1.2c-0.2,0.6,0.1,0.7,0.6,0.6c1.2-0.2,2.3,0,3.3,0.6
											c0.6,0.3,0.6,0.5,0.3,1c-0.2,0.3-0.4,0.7-0.6,1.2c1.1,0.1,2.1,0.1,2.9,0.3c0.9,0.2,1.7,0.5,2.5,0.9
											c0.8,0.4,0.8,0.7,0.2,1.4c0,0-0.1,0.1-0.1,0.2c0.2,0.1,0.3,0.2,0.5,0.3c1.3,0.7,2.6,1.3,3.9,2c0.2,0.1,0.3,0.4,0.5,0.7
											c0.1,0.2,0.2,0.3,0.4,0.4c0.8,0.5,1.6,0.9,2.4,1.3c1,0.6,2,1.4,3.1,1.9c0.7,0.4,1.5,0.4,2.3,0.7c0.8,0.3,1.6,0.7,2.3,1.1
											c0.2,0.1,0.4,0.5,0.6,0.7c-0.3,0.1-0.5,0.3-0.8,0.3c-0.6,0-1.1,0-1.5-0.5c-0.1-0.1-0.5-0.2-0.6-0.1
											c-0.5,0.5-1.1,0.3-1.6,0.3c-1.5-0.1-2.9-0.3-4.4-0.5c-0.5-0.1-0.9-0.1-1.5-0.2c0.5,0.6,0.9,1.2,1.4,1.8
											c-35.2-3.7-70.5-7.5-105.7-11.2C297.8,420.1,301.5,384.5,305.3,348.8z"/>
									</g>
								</g>
								<path class="st20" d="M773.1,175.8c-0.4,0.3-1.8,0.2-2-0.2c-0.1-0.2-0.1-0.4-0.2-0.6c-0.4-0.6-0.7-1.3-1.1-1.9
									c-0.1-0.1-0.5-0.2-0.7-0.2c-0.9,0.2-0.9,0.2-1.2-0.6c-0.1-0.4-0.4-0.7-0.6-1c-0.2-0.2-0.6-0.4-0.8-0.3
									c-0.6,0.1-1-0.1-1.3-0.6c-0.2-0.3-0.5-0.7-0.7-0.9c-0.2-0.2-0.5-0.5-0.9-0.6c-0.4-0.1-0.7-0.2-0.9-0.6
									c-0.1-0.2-0.3-0.4-0.5-0.6c-0.6-0.6-1.2-1.1-1.7-1.7c-0.6-0.6-1-1.3-1.6-1.9c-0.1-0.1-0.3-0.1-0.5-0.2
									c-0.1,0.2-0.2,0.4-0.2,0.6c0.1,0.6,0.3,1.3,0.5,1.9c0.3,1.3,0.7,2.6,1.1,3.9c0.3,1.1,0.5,2.2,0.8,3.3c0.1,0.3,0,0.5-0.2,0.8
									c-0.1,0.2-0.3,0.5-0.2,0.7c0.2,0.7,0.5,1.4,0.8,2.1c0.2,0.4,0.2,0.8-0.3,1.1c-0.2,0.1-0.3,0.4-0.3,0.6
									c0,0.8,0.3,1.5,0.8,2.2c0.5,0.7,0.3,1.1-0.6,1.4c-0.7,0.2-0.9,0.5-0.5,1.1c0.4,0.6,1,1.2,1.5,1.8c0.5,0.5,0.4,0.9-0.3,1.2
									c-0.4,0.2-0.6,0.4-0.4,0.8c0.1,0.2,0.1,0.5,0.3,0.7c0.5,0.6,1,1.2,1.5,1.7c0.6,0.6,0.5,1.1-0.3,1.5c-0.7,0.3-0.7,0.4-0.4,1
									c0.5,0.9,1.4,1.4,2.2,2.1c0.6,0.4,0.6,0.8,0,1.2c-0.8,0.4-0.8,0.6-0.4,1.4c0.1,0.2,0.3,0.4,0.5,0.6c0.5,0.7,1.2,1.2,2,1.6
									c0.2,0.1,0.4,0.5,0.3,0.6c-0.1,0.2-0.4,0.3-0.7,0.3c-0.2,0-0.5-0.1-0.7-0.3c-0.2-0.1-0.4-0.3-0.6-0.4
									c-0.5-0.4-0.8-0.3-1.2,0.2c-0.4,0.5-0.7,0.5-1.1,0c-0.3-0.3-0.5-0.7-0.9-1c-0.3-0.3-0.8-0.3-1.2-0.1
									c-0.8,0.5-0.8,0.5-1.5-0.1c-0.6-0.6-1.3-0.7-2-0.2c-0.4,0.3-0.8,0.3-1.2,0c-0.6-0.5-1.6-0.5-2.2-0.1c-0.4,0.3-0.7,0.2-1.1,0
									c-0.9-0.5-1.8-0.5-2.7,0c-0.4,0.2-0.9,0.3-1.3,0.1c-1.1-0.3-2.2-0.4-3.4-0.1c-0.2,0.1-0.4,0.1-0.7,0
									c-1.3-0.2-2.5-0.4-3.8-0.5c-0.3,0-0.6-0.1-0.9,0c-0.4,0.1-0.5,0.4-0.2,0.6c0.1,0.1,0.2,0.2,0.4,0.2c2,0.8,3.5,2.1,5,3.5
									c0.2,0.1,0.2,0.4,0.4,0.6c0.3,0.3,0.5,0.7,0.8,1c0.4,0.4,1.1,0.7,1.3,1.2c0.4,0.9,1,1.5,1.8,2.1c0.2,0.1,0.4,0.3,0.4,0.5
									c0,1.1,0.7,1.6,1.5,2c0.2,0.1,0.4,0.3,0.5,0.5c0.1,1.1,1,1.5,1.9,1.8c0.5,0.1,0.8,0.4,0.7,0.9c-0.1,0.5,0.2,0.9,0.6,1.1
									c0.4,0.2,0.8,0.4,1.3,0.5c0.4,0.1,0.7,0.2,0.7,0.7c0,0.5,0.4,0.8,0.9,1c0.4,0.2,0.9,0.2,1.4,0.3c0.2,0.1,0.5,0.1,0.6,0.3
									c0.5,0.8,1.4,1,2.1,1.5c0.2,0.2,0.6,0.5,0.6,0.6c-0.2,0.4-0.1,1.1-0.8,1.2c-0.6,0.1-1.1,0.4-1.2,1c-0.1,0.5-0.4,0.7-0.9,0.7
									c-0.6,0.1-1.1,0.3-1.4,0.8c-0.4,0.8-0.7,0.9-1.5,0.4c-0.7-0.4-1.4-0.9-2.1-1.3c-0.2-0.1-0.4-0.2-0.6-0.1
									c-0.1,0.1-0.2,0.4-0.2,0.5c0.1,0.8,0.2,1.6,0.4,2.4c0.2,0.6,0.3,1.2,0.2,1.8c-0.1,0.5,0.1,0.8,0.4,1.2
									c0.5,0.6,1.1,1.3,1.1,2c0,0.6-0.2,1.3-0.2,2c0,0,0,0.1,0,0.1c-0.2,0.5,0,0.9,0.3,1.2c0.2,0.2,0.3,0.5,0.3,0.7
									c0,0.4,0.2,0.7,0.4,1c0.2,0.3,0.2,0.7,0.3,1.1c0,0.3-0.2,0.4-0.5,0.3c-0.4-0.2-0.8-0.4-1.2-0.5c-0.4-0.1-0.8-0.4-1.2-0.4
									c-0.6,0.1-1.2-0.1-1.8-0.2c-0.5-0.1-1-0.1-1.4-0.3c-0.8-0.2-1.7-0.5-2-1.4c-0.1-0.3-0.2-0.3-0.5-0.2c-0.2,0.1-0.4,0-0.6,0
									c-0.2,0-0.5-0.1-0.5-0.1c-0.1,0.1-0.2,0.4-0.2,0.6c0.1,0.4,0.2,0.8,0.3,1.1c-0.4-0.2-0.7-0.4-1.1-0.5
									c-0.9-0.3-1.4,0-1.6,0.9c-0.2-0.1-0.3-0.3-0.5-0.3c-0.9-0.4-1.8-0.8-2.8-1.1c-1.2-0.3-1.4-0.1-2,0.9
									c-0.2-0.1-0.3-0.1-0.5-0.2c-1-0.7-2.2-0.8-3.4-0.9c-1.1,0-1.4,0.2-1.5,1.2c0,0-0.1,0-0.1,0.1c-1.3-0.6-2.8-0.6-4.3-0.8
									c-0.5-0.1-1,0-1.2,0.7c0,0.1-0.3,0.2-0.5,0.2c-0.5,0-1.1-0.1-1.6-0.1c-0.9,0-1.9,0-2.8,0c-2.2-0.1-4.4-0.2-6.6-0.3
									c-0.2,0-0.4,0.2-0.6,0.3c0.1,0.2,0.2,0.4,0.4,0.5c0.7,0.3,1.5,0.6,2.2,0.9c1.4,0.5,2.8,0.8,4.2,1.3c1.6,0.6,3.1,1.2,4.6,1.9
									c-0.3,0.5,0.2,0.7,0.7,0.9c1,0.4,2,0.8,2.9,1.1c0,0.4,0,0.8,0,1.1c0,0.1-0.1,0.2-0.2,0.2c-0.4,0.3-0.9,0.2-1.3,0.1
									c-0.5-0.2-1.1-0.1-1.5,0.3c-0.3,0.3-0.6,0.4-1,0.3c-0.8-0.2-1.5-0.2-2.3,0.1c-0.5,0.1-1,0.2-1.4,0.2c-0.8,0-1.5,0-2.3,0
									c-0.4,0-0.5,0.3-0.3,0.6c0.1,0.1,0.2,0.2,0.3,0.3c1.3,0.8,2.6,1.6,3.9,2.5c0.3,0.2,0.5,0.3,0.7,0.5c0.8,1,1.9,1.7,3.3,1.9
									c0.3,0.1,0.6,0.2,0.7,0.4c0.4,1,1.3,1.3,2.3,1.5c1.1,0.2,1.5,0.4,2.3,1c0.7,0.5,1.5,0.4,2.3,0.4c0.5,0,0.9,0.1,1.1,0.6
									c0.3,0.5,0.7,0.7,1.2,0.7c0.5,0,1,0,1.5,0c0.2,0,0.4,0.1,0.7,0.2c0,0.1,0,0.2-0.1,0.3c-1.1-0.1-2.3-0.1-3.4-0.2
									c-0.8-0.1-1.6-0.3-2.4,0.2c-0.6,0.3-1.1,0.3-1.7,0.2c-1-0.1-2.1-0.1-3.1,0.4c-0.3,0.2-0.8,0.2-1.1,0.3
									c-0.8,0.1-1.7,0-2.5,0.1c-0.8,0.1-0.9,0.6-0.5,1.1c0.1,0.2,0.2,0.3,0.4,0.6c-0.2,0-0.3,0-0.4,0c-0.9,0-1.7-0.1-2.6,0.3
									c-1,0.4-1.2,0.8-0.7,1.7c0.2,0.3,0.1,0.5-0.3,0.5c-0.5,0-1,0-1.4,0.1c-1.3,0.2-1.6,0.6-1,1.7c0.2,0.4,0.2,0.6-0.3,0.6
									c-1.1,0-2,0.3-2.9,0.9c-0.5,0.3-0.7,0.6-0.5,1.1c0,0.1-0.1,0.4-0.2,0.5c-1.2,0.4-2.1,1.3-3.1,2.1c-0.8,0.7-1.7,1.3-2.5,2
									c-0.6,0.5-1.2,1-1.8,1.5c-0.4,0.4-0.4,1,0.1,1.2c0.5,0.2,1,0.3,1.6,0.1c1-0.4,2.1-0.6,3.1-0.9c1.1-0.3,2.3-0.2,3.4-0.8
									c0.1,0,0.3,0.1,0.5,0.2c0.2,0.1,0.4,0.4,0.7,0.4c1.3,0.2,2.6,0,3.7-0.8c0.1-0.1,0.3-0.1,0.6-0.3c-0.1,0.3-0.1,0.5-0.2,0.6
									c-0.1,0.3-0.3,0.8-0.1,0.9c0.3,0.2,0.8,0.4,1.2,0.3c0.9-0.1,1.8-0.4,2.5-1.1c0.2-0.1,0.4-0.2,0.6-0.3c0,0.2,0,0.4,0,0.6
									c0,0.1-0.1,0.2-0.1,0.4c-0.1,0.6,0,0.9,0.7,1c0.3,0.1,0.6,0.1,0.9,0.1c0,0.3-0.1,0.5-0.1,0.8c0.1,0.7-0.2,1.2-0.9,1.5
									c-0.7,0.3-0.9,0.8-0.9,1.4c0,0.2,0,0.4-0.2,0.6c-0.4,0.7-0.9,1.3-1.3,2c16.3-4.1,32.5-8.3,48.8-12.4"/>
								<g>
									<g>
										<path class="st20" d="M685.2,143.6L673,154.2c-0.3,0.3-0.8,0.3-1.1,0.1l-14.4-9.6c-0.8-0.5-1.8,0.5-1.2,1.3l12.7,18.1
											c0.3,0.4,0.9,0.5,1.3,0.2l3.5-2.8c0.7-0.5,1.6-0.8,2.4-0.6l5.8,0.9c0.8,0.1,1.3-0.8,0.9-1.4l-2.4-3.4
											c-0.2-0.3-0.2-0.6-0.1-0.9l6.1-11.3C687,143.8,685.9,142.9,685.2,143.6z"/>
										<path class="st20" d="M607.2,194.1l-12.7-5.5c-0.2-0.1-0.5-0.1-0.7,0l-9.5,5.3c-0.8,0.4-0.4,1.7,0.5,1.6l9.6-1.1
											c0.2,0,0.4,0,0.6,0.1l13.2,8.8c0.4,0.3,0.9,0.1,1.2-0.3l7.2-11.3c0.2-0.3,0.5-0.4,0.8-0.4l4.8,0.6c0.9,0.1,1.3-1,0.6-1.5
											l-6.6-4.6c-0.4-0.2-0.8-0.2-1.1,0.1l-6.7,7.8C607.9,194.1,607.5,194.2,607.2,194.1z"/>
										<path class="st20" d="M664.8,204.4l-8.3-3.6c-0.2-0.1-0.3-0.1-0.5,0l-6.2,3.5c-0.5,0.3-0.3,1.1,0.3,1l6.3-0.7
											c0.1,0,0.3,0,0.4,0.1l8.6,5.7c0.3,0.2,0.6,0.1,0.8-0.2l4.7-7.4c0.1-0.2,0.3-0.3,0.5-0.3l3.1,0.4c0.6,0.1,0.9-0.7,0.4-1
											l-4.3-3c-0.2-0.2-0.5-0.1-0.7,0.1l-4.4,5.1C665.3,204.5,665.1,204.5,664.8,204.4z"/>
									</g>
								</g>
								<g>
									<path class="st33" d="M284,149.1c-2,0-2,3.1,0,3.1C286,152.2,286,149.1,284,149.1z"/>
									<g>
										<path class="st33" d="M689.7,42.8c-1.3,0-1.3,2.1,0,2.1C691,44.8,691,42.8,689.7,42.8z"/>
										<path class="st33" d="M580.7,77.7c-1.3,0-1.3,2.1,0,2.1C582,79.8,582,77.7,580.7,77.7z"/>
										<path class="st33" d="M751,110.6c-1.3,0-1.3,2.1,0,2.1C752.3,112.7,752.3,110.6,751,110.6z"/>
										<path class="st33" d="M540.3,127.2c-1.3,0-1.3,2.1,0,2.1C541.6,129.3,541.6,127.2,540.3,127.2z"/>
										<path class="st33" d="M307.3,10.2c-1.3,0-1.3,2.1,0,2.1C308.7,12.3,308.7,10.2,307.3,10.2z"/>
										<path class="st33" d="M504.7,38c-1.3,0-1.3,2.1,0,2.1C506,40,506,38,504.7,38z"/>
										<path class="st33" d="M367.6,59.9c-1.3,0-1.3,2.1,0,2.1C369,61.9,369,59.9,367.6,59.9z"/>
										<path class="st33" d="M299.8,108.5c-1.3,0-1.3,2.1,0,2.1C301.1,110.6,301.1,108.5,299.8,108.5z"/>
										<path class="st33" d="M752,66.7c-1.3,0-1.3,2.1,0,2.1C753.3,68.8,753.3,66.7,752,66.7z"/>
										<path class="st33" d="M290.2,34.5c-1.3,0-1.3,2.1,0,2.1C291.5,36.6,291.5,34.5,290.2,34.5z"/>
										<path class="st33" d="M329.3,34.7c-2,0-2,3.1,0,3.1C331.2,37.8,331.2,34.7,329.3,34.7z"/>
										<path class="st33" d="M460.5,88.1c-2,0-2,3.1,0,3.1C462.5,91.2,462.5,88.1,460.5,88.1z"/>
										<path class="st33" d="M369.8,120.2c-2,0-2,3.1,0,3.1C371.8,123.3,371.8,120.2,369.8,120.2z"/>
										<path class="st33" d="M575.2,32.7c-2,0-2,3.1,0,3.1C577.2,35.7,577.2,32.7,575.2,32.7z"/>
										<path class="st33" d="M648.6,49.6c-2,0-2,3.1,0,3.1C650.6,52.7,650.6,49.6,648.6,49.6z"/>
										<path class="st33" d="M736.3,25.8c-2,0-2,3.1,0,3.1C738.2,28.9,738.2,25.8,736.3,25.8z"/>
										<path class="st33" d="M709,86.8c-2,0-2,3.1,0,3.1C710.9,89.9,710.9,86.8,709,86.8z"/>
										<path class="st33" d="M292.3,73.8c-2,0-2,3.1,0,3.1C294.2,76.9,294.3,73.8,292.3,73.8z"/>
										<path class="st33" d="M631.4,22.4c-2,0-2,3.1,0,3.1C633.4,25.5,633.4,22.4,631.4,22.4z"/>
										<path class="st33" d="M356,18.3c-2,0-2,3.1,0,3.1C358,21.4,358,18.3,356,18.3z"/>
										<path class="st33" d="M560.2,118.3c-2,0-2,3.1,0,3.1C562.1,121.4,562.2,118.3,560.2,118.3z"/>
										<path class="st33" d="M468,12.3c-2,0-2,3.1,0,3.1C470,15.4,470,12.3,468,12.3z"/>
										<path class="st33" d="M698.6,125.2c-2,0-2,3.1,0,3.1C700.5,128.2,700.6,125.2,698.6,125.2z"/>
										<path class="st33" d="M530,66.9c-2,0-2,3.1,0,3.1C532,70,532,66.9,530,66.9z"/>
										<path class="st33" d="M407.6,74.3c-2,0-2,3.1,0,3.1C409.6,77.3,409.6,74.3,407.6,74.3z"/>
										<path class="st33" d="M329.9,70.3c-2,0-2,3.1,0,3.1C331.9,73.4,331.9,70.3,329.9,70.3z"/>
									</g>
								</g>
							</g>
						</g>
					</g>
					<g class="st3">
						<g class="st10">
							<rect x="23.5" y="223.8" class="st34" width="242.9" height="72.8"/>
							<text transform="matrix(1 0 0 1 23.4815 231.2574)"><tspan x="0" y="0" class="st12 st35 st36">Lorem ipsum dolor sit amet, consectetuer adipiscing </tspan><tspan x="0" y="13.6" class="st12 st35 st36">elit, sed diam nonummy nibh euismod tincidunt ut </tspan><tspan x="0" y="27.1" class="st12 st35 st36">laoreet dolore magna aliquam erat volutpat.</tspan></text>
						</g>
						<g class="st10">
							<g>
								<g>
									<linearGradient id="SVGID_18_" gradientUnits="userSpaceOnUse" x1="23.4817" y1="344.012" x2="117.502" y2="344.012">
										<stop  offset="0" style="stop-color:#41A7AF"/>
										<stop  offset="1" style="stop-color:#66C6BF"/>
									</linearGradient>
									<path class="st37" d="M100,361.6H41c-9.7,0-17.5-7.9-17.5-17.5l0,0c0-9.7,7.9-17.5,17.5-17.5H100c9.7,0,17.5,7.9,17.5,17.5
										l0,0C117.5,353.7,109.6,361.6,100,361.6z"/>
								</g>
							</g>
							<g>
								<text transform="matrix(1 0 0 1 51.2168 348.855)" class="st33 st38 st39 st40">JOIN</text>
							</g>
						</g>
						<g class="st10">
							<text transform="matrix(1 0 0 1 346.4932 56.8604)" class="st33 st41 st42 st40">home</text>
							<text transform="matrix(1 0 0 1 429.5293 56.8604)" class="st33 st41 st42 st40">gallery</text>
							<text transform="matrix(1 0 0 1 530.0137 56.8604)" class="st33 st41 st42 st40">contact</text>
						</g>
					</g>
				</g>
			</g>
		</g>
	</g>
</g>
</svg>
