<svg xmlns="http://www.w3.org/2000/svg" width="513" height="576" viewBox="0 0 513 576"><title>info</title><polygon points="513 351 387 351 387 576 270 351 0 351 0 0 513 0 513 351" fill="#ffd200"/><path d="M2328,1964.57a32,32,0,0,0,23.22-9.65,31.41,31.41,0,0,0,9.65-23q0-14.3-9.65-23.59A32.68,32.68,0,0,0,2328,1899a31,31,0,0,0-23,9.65,31.66,31.66,0,0,0-9.65,23.23,31.07,31.07,0,0,0,9.65,23A31.42,31.42,0,0,0,2328,1964.57Z" transform="translate(-2079 -1872)" fill="#fff"/><path d="M2398,2121.47h-21.65s-10.54.16-10.9-9.62c-1-12.87-1.88-23.45-2-26.5l-1.25-31.44q-.18-2.86-.18-7.51,0-10.37-.17-16.26c-.12-1.43-.18-3-.18-4.82l.53-13.4v-31.45q-46.45,22-82.36,27.88l-4.83,22.33a67.62,67.62,0,0,0,12.87,1.25,42.41,42.41,0,0,0,16.08-3l.71,44.85c0,11,.3,24.89.58,38.84.23,9.05-8.82,8.89-8.82,8.89H2273v48.1h32.25v0l.23,0H2398Z" transform="translate(-2079 -1872)" fill="#fff"/></svg>