<svg xmlns="http://www.w3.org/2000/svg" width="64.57" height="71.74" viewBox="0 0 64.57 71.74"><title>Mentor</title><path d="M245.26,206.51l-9.95-9.95a5.49,5.49,0,0,1,0-7.76l4.62-4.62a5.49,5.49,0,0,1,8.59,1.06L256,197.72Zm-1.46-23a4.52,4.52,0,0,0-3.21,1.34L236,189.46a4.55,4.55,0,0,0,0,6.44l9.35,9.35,9.44-7.74-7-11.79A4.52,4.52,0,0,0,243.8,183.5Z" transform="translate(-192.72 -182.57)" fill="#ffc522"/><polygon points="52.23 26.38 32.16 24.64 31 23.47 48.05 22.2 52.23 26.38" fill="#ffd15f"/><path d="M225.94,206.68h0c0,1.92-1.29,4.28-2.89,4.28h0V202.4h0C224.65,202.4,225.94,204.76,225.94,206.68Z" transform="translate(-192.72 -182.57)" fill="#ffc522"/><path d="M206.23,218.41c.09-1.12,2.2-3.35,2.22-3.32a18.71,18.71,0,0,1,.91,3.74,1.75,1.75,0,0,1-1.74,1.69A1.78,1.78,0,0,1,206.23,218.41Z" transform="translate(-192.72 -182.57)" fill="#27aae1"/><path d="M211.92,219.28c.09-1.12,2.19-3.36,2.22-3.33a18.85,18.85,0,0,1,.91,3.75,1.76,1.76,0,0,1-1.74,1.69A1.79,1.79,0,0,1,211.92,219.28Z" transform="translate(-192.72 -182.57)" fill="#27aae1"/><path d="M217.6,219.14c.1-1.12,2.2-3.35,2.22-3.32a17.4,17.4,0,0,1,.91,3.74,1.73,1.73,0,0,1-1.73,1.69A1.78,1.78,0,0,1,217.6,219.14Z" transform="translate(-192.72 -182.57)" fill="#27aae1"/><path d="M211.89,211.24c.33-.91,2.57-2.29,2.58-2.27a14.73,14.73,0,0,1-.08,3.31,1.5,1.5,0,0,1-1.81,1A1.54,1.54,0,0,1,211.89,211.24Z" transform="translate(-192.72 -182.57)" fill="#27aae1"/><path d="M217.31,207c.75-.61,3.38-.66,3.38-.63a15.82,15.82,0,0,1-1.76,2.8,1.5,1.5,0,0,1-2.08,0A1.53,1.53,0,0,1,217.31,207Z" transform="translate(-192.72 -182.57)" fill="#27aae1"/><path d="M203.61,226.68c0-1.12,1.9-3.53,1.93-3.5a17.9,17.9,0,0,1,1.22,3.66,1.75,1.75,0,0,1-1.59,1.83A1.78,1.78,0,0,1,203.61,226.68Z" transform="translate(-192.72 -182.57)" fill="#27aae1"/><path d="M209.2,226.68c0-1.12,1.91-3.53,1.93-3.5a17.3,17.3,0,0,1,1.22,3.66,1.75,1.75,0,0,1-1.58,1.83A1.79,1.79,0,0,1,209.2,226.68Z" transform="translate(-192.72 -182.57)" fill="#27aae1"/><path d="M214.79,226.68c0-1.12,1.91-3.53,1.94-3.5a18.55,18.55,0,0,1,1.22,3.66,1.76,1.76,0,0,1-1.59,1.83A1.79,1.79,0,0,1,214.79,226.68Z" transform="translate(-192.72 -182.57)" fill="#27aae1"/><path d="M220.39,226.68c0-1.12,1.9-3.53,1.93-3.5a17.9,17.9,0,0,1,1.22,3.66,1.75,1.75,0,0,1-1.58,1.83A1.79,1.79,0,0,1,220.39,226.68Z" transform="translate(-192.72 -182.57)" fill="#27aae1"/><path d="M219.23,214a1.49,1.49,0,0,1-1.81,1,1.54,1.54,0,0,1-.69-2.06c.33-.9,2.57-2.29,2.58-2.26Z" transform="translate(-192.72 -182.57)" fill="#27aae1"/><path d="M209.73,243.84c-.39-11.64-10.16-11.27-17-11.27C200.86,237.51,198.6,244.94,209.73,243.84Z" transform="translate(-192.72 -182.57)" fill="#8dc63f"/><path d="M212,254.31l.22-3.06v.12a29.63,29.63,0,0,0-.82-3.62,14.82,14.82,0,0,0-.62-1.73c-.13-.28-.24-.57-.39-.83s-.29-.54-.46-.79a9.34,9.34,0,0,0-1.13-1.46,13.7,13.7,0,0,0-1.36-1.27,30.13,30.13,0,0,0-3.09-2.12,30.41,30.41,0,0,1,3.26,1.9,14.22,14.22,0,0,1,1.49,1.2,10.22,10.22,0,0,1,1.28,1.43,7.1,7.1,0,0,1,.55.8c.18.27.32.56.48.84a14.5,14.5,0,0,1,.78,1.76,32.11,32.11,0,0,1,1.12,3.66v.11l.22,3.06Z" transform="translate(-192.72 -182.57)" fill="#8dc63f"/><path d="M215.75,243.84c.39-11.64,10.16-11.27,17-11.27C224.62,237.51,226.88,244.94,215.75,243.84Z" transform="translate(-192.72 -182.57)" fill="#8dc63f"/><path d="M211.94,254.31l.21-3.06v-.11a34.2,34.2,0,0,1,1.11-3.66,16.31,16.31,0,0,1,.79-1.76c.16-.28.29-.57.48-.84a7.1,7.1,0,0,1,.55-.8,10.22,10.22,0,0,1,1.28-1.43,14.22,14.22,0,0,1,1.49-1.2,30.41,30.41,0,0,1,3.26-1.9,30.13,30.13,0,0,0-3.09,2.12,13.7,13.7,0,0,0-1.36,1.27,9.34,9.34,0,0,0-1.13,1.46c-.17.25-.31.52-.46.79s-.26.55-.39.83a14.82,14.82,0,0,0-.62,1.73,29.63,29.63,0,0,0-.82,3.62v-.12l.22,3.06Z" transform="translate(-192.72 -182.57)" fill="#8dc63f"/><path d="M256.37,203.05a3.13,3.13,0,0,0,0-4.42l-9.45-9.44a3.11,3.11,0,0,0-4.41,0l-3.5,3.49,13.87,13.86Z" transform="translate(-192.72 -182.57)" fill="#ffd15f"/><path d="M239,192.68l-3.49,3.5a3.11,3.11,0,0,0,0,4.41L245,210a3.11,3.11,0,0,0,4.41,0l3.5-3.5Z" transform="translate(-192.72 -182.57)" fill="#ffc522"/></svg>